<svg width="10" height="12" viewBox="0 0 10 12" fill="none" xmlns="http://www.w3.org/2000/svg">
<path d="M3 0.75V11.25C2.99461 11.662 2.66196 11.9946 2.25 12H0.75C0.338038 11.9946 0.00538581 11.662 0 11.25V0.75C0.00538581 0.338038 0.338038 0.00538581 0.75 0H2.25C2.66196 0.00538581 2.99461 0.338038 3 0.75ZM9.25 0H7.75C7.33804 0.00538581 7.00539 0.338038 7 0.75V11.25C7.00539 11.662 7.33804 11.9946 7.75 12H9.25C9.66196 11.9946 9.99461 11.662 10 11.25V0.75C9.99461 0.338038 9.66196 0.00538581 9.25 0Z" fill="#333333"/>
</svg>
